<svg width="719" height="652" viewBox="0 0 719 652" fill="none" xmlns="http://www.w3.org/2000/svg">
<circle cx="353.612" cy="329.616" r="30" fill="#F7A72F"/>
<path id="path1" d="M440.748 337.653C438.028 354.439 424.489 368.347 404.32 377.128C384.176 385.898 357.642 389.432 329.515 385.555C301.387 381.678 277.134 371.144 260.65 357.326C244.146 343.491 235.608 326.541 238.328 309.754C241.049 292.967 254.587 279.06 274.757 270.279C294.901 261.509 321.434 257.975 349.562 261.852C377.689 265.728 401.943 276.262 418.426 290.08C434.93 303.916 443.468 320.866 440.748 337.653Z" stroke="#E0E0E0" stroke-width="3"/>
<path id="path2" d="M545.103 295.465C551.481 328.825 536.181 362.663 505.85 390.419C475.534 418.163 430.344 439.672 377.453 448.273C324.561 456.873 274.12 450.915 235.343 434.407C196.548 417.891 169.62 390.92 163.242 357.561C156.864 324.201 172.165 290.364 202.495 262.607C232.811 234.863 278.001 213.354 330.892 204.754C383.784 196.153 434.225 202.111 473.003 218.619C511.798 235.135 538.725 262.106 545.103 295.465Z" stroke="#E0E0E0" stroke-width="3"/>
<path id="path3" d="M641.238 429.467C621.566 477.988 572.163 511.248 507.789 525.599C443.435 539.945 364.342 535.323 285.803 508.242C207.265 481.162 144.284 436.797 105.922 387.034C67.5468 337.255 53.9228 282.263 73.5943 233.741C93.2658 185.22 142.669 151.959 207.044 137.609C271.397 123.263 350.49 127.885 429.029 154.965C507.567 182.046 570.548 226.411 608.91 276.174C647.285 325.953 660.909 380.945 641.238 429.467Z" stroke="#E0E0E0" stroke-width="3"/>
<path id="path4" d="M717.5 325.696C717.5 504.623 559.056 649.892 363.322 649.892C167.588 649.892 9.14435 504.623 9.14435 325.696C9.14435 146.769 167.588 1.5 363.322 1.5C559.056 1.5 717.5 146.769 717.5 325.696Z" stroke="#E0E0E0" stroke-width="3"/>
</svg>
